<svg width="75" height="24" viewBox="0 0 75 24" fill="none" xmlns="http://www.w3.org/2000/svg">
<path d="M15.0067 22.1119L13.7438 11.9904L9.75743 21.0437L8.84429 21.1558L2.79343 13.3954L4.02919 23.4598L2.1235 23.6938L0.417327 9.79811L2.0451 9.59825L9.04077 18.6532L13.5586 8.18456L15.1864 7.9847L16.9124 21.8779L15.0067 22.1119ZM27.3751 20.7545C25.9723 20.9267 24.6711 20.7775 23.4714 20.3069C22.2702 19.823 21.2787 19.0783 20.497 18.0727C19.7285 17.0655 19.2622 15.8936 19.0981 14.557C18.934 13.2203 19.1029 11.9704 19.6049 10.8073C20.1201 9.64245 20.9028 8.68661 21.9529 7.93973C23.0014 7.17962 24.2271 6.71344 25.6299 6.5412C27.0195 6.37058 28.3149 6.52721 29.5161 7.01109C30.7158 7.48173 31.6998 8.22065 32.4683 9.22783C33.2351 10.2218 33.7014 11.3937 33.8672 12.7436C34.0329 14.0934 33.8648 15.3499 33.3628 16.5131C32.8592 17.6631 32.0831 18.6181 31.0346 19.3782C29.9845 20.1251 28.7646 20.5838 27.3751 20.7545ZM27.1581 18.9877C28.1772 18.8626 29.0619 18.5189 29.8123 17.9566C30.5759 17.3927 31.1397 16.6786 31.5038 15.8145C31.8795 14.9355 32.0056 13.9931 31.8821 12.9873C31.7586 11.9815 31.4091 11.1042 30.8335 10.3555C30.2696 9.59183 29.5489 9.02879 28.6716 8.66635C27.8074 8.30228 26.8658 8.18281 25.8468 8.30793C24.8278 8.43305 23.9299 8.77839 23.153 9.34395C22.3894 9.90788 21.8197 10.6293 21.444 11.5083C21.08 12.3725 20.9597 13.3075 21.0832 14.3132C21.2067 15.319 21.5504 16.2037 22.1143 16.9674C22.6899 17.7161 23.4163 18.2717 24.2937 18.6342C25.1843 18.995 26.1391 19.1128 27.1581 18.9877ZM47.6717 3.99601L43.2836 18.6399L41.3184 18.8812L33.4981 5.7363L35.642 5.47307L42.0459 16.2731L45.6866 4.23975L47.6717 3.99601ZM61.0221 14.7089L61.2341 16.4359L51.1499 17.6741L49.4437 3.77843L59.25 2.57436L59.4621 4.3014L51.6408 5.26173L52.1649 9.52967L59.1325 8.67415L59.3397 10.3615L52.372 11.217L52.9229 15.7033L61.0221 14.7089ZM74.3206 13.076L74.5327 14.803L64.4484 16.0412L62.7422 2.14557L72.5486 0.941506L72.7607 2.66854L64.9394 3.62887L65.4634 7.89682L72.4311 7.04129L72.6383 8.72862L65.6706 9.58414L66.2215 14.0705L74.3206 13.076Z" fill="#121611"/>
</svg>
